<svg xmlns="http://www.w3.org/2000/svg" x="0px" y="0px"
width="50" height="50"
viewBox="0 0 50 50"
style=" fill:#000000;">    <path d="M 4 0 L 4 2.375 L 12.25 17 L 6 10 L 4 10 L 10.75 19 L 5 15 L 5 17 L 11 22.375 L 7.0078125 21 L 7.5 23 L 13.625 27 L 10 27 L 9 28.5 L 15 30.5 L 12 31.5 L 13 33 L 16.998047 33 L 15 34 L 15 36 L 18 34.625 L 15.998047 36.349609 L 17.625 37 L 18.625 36.625 L 18 37.5 L 18.998047 37.5 L 19.998047 37 L 20 38 L 20.998047 37.375 L 21.625 38 L 23 36 L 21.375 41 L 21.75 42 L 22.5 40.75 L 22.5 45.375 L 23.375 46 L 24 43 L 24 50 L 26 49.5 L 25.998047 43 L 26.623047 46 L 27.498047 45.375 L 27.498047 40.75 L 28.25 42 L 28.623047 41 L 26.998047 36 L 28.373047 38 L 29 37.375 L 29.998047 38 L 30 37 L 31 37.5 L 31.998047 37.5 L 31.373047 36.625 L 32.373047 37 L 33.998047 36.349609 L 31.998047 34.625 L 34.998047 36 L 34.998047 34 L 33 33 L 36.998047 33 L 37.998047 31.5 L 34.998047 30.5 L 40.998047 28.5 L 39.998047 27 L 36.373047 27 L 42.498047 23 L 42.990234 21 L 38.998047 22.375 L 44.998047 17 L 44.998047 15 L 39.248047 19 L 46 10 L 43.998047 10 L 37.748047 17 L 45.998047 2.375 L 46 0 L 27.248047 28 L 26.123047 26 L 23.875 26 L 22.75 28 L 4 0 z"></path></svg>